<?xml version="1.0" encoding="iso-8859-1"?>
<!-- Generator: Adobe Illustrator 19.0.0, SVG Export Plug-In . SVG Version: 6.00 Build 0)  -->
<svg version="1.1" id="Layer_1" xmlns="http://www.w3.org/2000/svg" xmlns:xlink="http://www.w3.org/1999/xlink" x="0px" y="0px"
	 viewBox="0 0 501.984 501.984" style="enable-background:new 0 0 501.984 501.984;" xml:space="preserve">
<g>
	<g>
		<path style="fill:rgb(235, 193, 126);" d="M484.724,445.603L336.96,297.839c-15.066-15.066-19.465-37.702-11.336-57.397
			c8.268-20.032,12.682-42.059,12.315-65.161c-1.428-89.878-74.07-161.315-163.959-161.315c-89.51,0-162.269,71.718-163.95,160.826
			C8.306,266.19,82.517,341.899,173.931,341.926c25.323,0.007,49.305-5.727,70.718-15.97c20.241-9.683,44.352-5.802,60.218,10.064
			l144.72,144.72c4.852,4.851,11.21,7.277,17.568,7.277c6.359,0,12.717-2.426,17.568-7.277
			C494.426,471.037,494.426,455.306,484.724,445.603z M173.98,291.242c-62.571,0-113.295-50.724-113.295-113.295
			S111.409,64.652,173.98,64.652s113.295,50.724,113.295,113.295S236.551,291.242,173.98,291.242z"/>
		<path d="M467.156,498.017c-9.307,0-18.058-3.625-24.639-10.206l-144.722-144.72c-12.734-12.734-32.356-15.996-48.832-8.114
			c-23.509,11.247-48.737,16.949-74.983,16.949c-0.018,0-0.035,0-0.052,0c-46.898-0.014-90.929-18.577-123.983-52.269
			C16.873,265.945-0.854,221.534,0.032,174.605c0.863-45.769,19.34-88.661,52.028-120.774C84.792,21.676,128.09,3.967,173.979,3.967
			c46.118,0,89.504,17.695,122.166,49.824c32.666,32.135,51.06,75.225,51.792,121.332c0.38,23.94-4.017,47.2-13.069,69.134
			c-6.628,16.06-3.031,34.316,9.163,46.511l147.765,147.764l0,0c13.585,13.586,13.585,35.692,0,49.278
			C485.213,494.392,476.462,498.017,467.156,498.017z M267.68,310.724c16.297,0,32.321,6.288,44.258,18.224l144.721,144.72
			c2.804,2.804,6.532,4.348,10.497,4.348s7.693-1.544,10.498-4.348c5.787-5.788,5.787-15.206-0.001-20.995L329.888,304.91
			c-17.927-17.927-23.229-44.729-13.509-68.283c8.008-19.401,11.896-39.987,11.56-61.187
			c-1.349-84.938-68.977-151.473-153.96-151.473c-83.319,0-152.381,67.745-153.952,151.015
			C19.244,216.5,34.94,255.803,64.221,285.651c29.263,29.829,68.226,46.263,109.712,46.275c0.014,0,0.032,0,0.047,0
			c23.236,0,45.557-5.043,66.352-14.991C249.069,312.756,258.419,310.724,267.68,310.724z M173.98,301.242
			c-67.985,0-123.295-55.31-123.295-123.295S105.995,54.652,173.98,54.652s123.295,55.31,123.295,123.295
			S241.965,301.242,173.98,301.242z M173.98,74.652c-56.957,0-103.295,46.338-103.295,103.295s46.338,103.295,103.295,103.295
			s103.295-46.338,103.295-103.295S230.937,74.652,173.98,74.652z"/>
	</g>
	<g>
		<circle style="fill: transparent;" cx="173.98" cy="177.947" r="113.295"/>
		<path d="M173.98,301.242c-67.985,0-123.295-55.31-123.295-123.295S105.995,54.652,173.98,54.652s123.295,55.31,123.295,123.295
			S241.965,301.242,173.98,301.242z M173.98,74.652c-56.957,0-103.295,46.338-103.295,103.295s46.338,103.295,103.295,103.295
			s103.295-46.338,103.295-103.295S230.937,74.652,173.98,74.652z"/>
	</g>
	<g>
		<path d="M102.253,228.696c-3.478,0-6.856-1.816-8.7-5.055c-7.89-13.86-12.06-29.661-12.06-45.695
			c0-50.998,41.489-92.487,92.487-92.487c11.527,0,22.777,2.097,33.438,6.232c5.149,1.998,7.704,7.791,5.707,12.94
			c-1.998,5.148-7.79,7.703-12.94,5.707c-8.345-3.237-17.161-4.879-26.204-4.879c-39.969,0-72.487,32.518-72.487,72.487
			c0,12.571,3.265,24.95,9.441,35.8c2.732,4.8,1.056,10.906-3.743,13.638C105.629,228.273,103.929,228.696,102.253,228.696z"/>
	</g>
	<g>
		<path d="M246.282,148.196c-3.526,0-6.944-1.869-8.767-5.175c-3.636-6.598-8.264-12.575-13.755-17.765
			c-4.014-3.793-4.192-10.123-0.399-14.136c3.794-4.014,10.123-4.193,14.136-0.399c6.999,6.614,12.898,14.234,17.534,22.647
			c2.666,4.837,0.905,10.919-3.931,13.585C249.569,147.795,247.913,148.196,246.282,148.196z"/>
	</g>
</g>
<g>
</g>
<g>
</g>
<g>
</g>
<g>
</g>
<g>
</g>
<g>
</g>
<g>
</g>
<g>
</g>
<g>
</g>
<g>
</g>
<g>
</g>
<g>
</g>
<g>
</g>
<g>
</g>
<g>
</g>
</svg>
